<svg xmlns="http://www.w3.org/2000/svg"  viewBox="0 0 30 30" width="30px" height="30px"><path d="M 21.980469 7.9902344 A 1.0001 1.0001 0 0 0 21.292969 8.2929688 L 12 17.585938 L 8.7167969 14.302734 A 1 1 0 0 0 8.7070312 14.292969 A 1 1 0 0 0 8 14 A 1 1 0 0 0 7 15 A 1 1 0 0 0 7.2929688 15.707031 L 10.585938 19 L 9 20.585938 L 2.7070312 14.292969 A 1.0001 1.0001 0 1 0 1.2929688 15.707031 L 8.2929688 22.707031 A 1.0001 1.0001 0 0 0 9.7070312 22.707031 L 22.707031 9.7070312 A 1.0001 1.0001 0 0 0 21.980469 7.9902344 z M 28 8 A 1 1 0 0 0 27.292969 8.2929688 L 15 20.585938 L 14.707031 20.292969 L 13.292969 21.707031 L 14.292969 22.707031 A 1.0001 1.0001 0 0 0 15.707031 22.707031 L 28.697266 9.7167969 A 1 1 0 0 0 29 9 A 1 1 0 0 0 28 8 z"/></svg>